<?xml version="1.0" encoding="iso-8859-1"?>
<!-- Generator: Adobe Illustrator 16.0.3, SVG Export Plug-In . SVG Version: 6.00 Build 0)  -->
<!DOCTYPE svg PUBLIC "-//W3C//DTD SVG 1.1//EN" "http://www.w3.org/Graphics/SVG/1.1/DTD/svg11.dtd">
<svg version="1.1" id="Laag_1" xmlns="http://www.w3.org/2000/svg" xmlns:xlink="http://www.w3.org/1999/xlink" x="0px" y="0px"
     width="1024.96px" height="319.532px" viewBox="0 0 1024.96 319.532" style="enable-background:new 0 0 1024.96 319.532;"
     xml:space="preserve">
<rect y="0.097" style="fill:#FFFFFF;" width="266.196" height="319.435"/>
    <rect y="53.336" style="fill:#690919;" width="53.239" height="53.239"/>
    <polygon style="fill:#ED1C24;" points="0,106.575 0,53.336 53.239,53.336 "/>
    <rect y="53.336" style="fill:#F37053;" width="53.239" height="53.239"/>
    <polygon style="fill:#ED1C24;" points="53.239,106.575 0,106.575 0,53.336 "/>
    <rect y="0.097" style="fill:#F37053;" width="53.239" height="53.239"/>
    <rect y="159.814" style="fill:#F37053;" width="53.239" height="53.239"/>
    <polygon style="fill:#ED1C24;" points="53.239,213.053 0,213.053 0,159.814 "/>
    <polygon style="fill:#ED1C24;" points="53.239,53.336 0,53.336 53.239,0.097 "/>
    <rect y="106.575" style="fill:#F37053;" width="53.239" height="53.239"/>
    <polygon style="fill:#ED1C24;" points="53.239,159.814 0,159.814 53.239,106.575 "/>
    <rect y="213.053" style="fill:#F37053;" width="53.239" height="53.239"/>
    <polygon style="fill:#ED1C24;" points="53.239,266.292 0,266.292 53.239,213.053 "/>
    <rect x="53.239" y="0.097" style="fill:#F37053;" width="53.239" height="53.239"/>
    <polygon style="fill:#ED1C24;" points="53.239,0.097 106.479,0.097 106.479,53.336 "/>
    <polygon style="fill:#ED1C24;" points="53.239,53.336 106.479,53.336 53.239,106.575 "/>
    <rect x="212.957" y="0.097" style="fill:#ED1C24;" width="53.239" height="53.239"/>
    <rect x="212.957" y="159.814" style="fill:#ED1C24;" width="53.239" height="53.239"/>
    <polygon style="fill:#F37053;" points="212.957,213.054 266.196,213.054 266.196,159.814 "/>
    <polygon style="fill:#F37053;" points="212.957,53.336 266.196,53.336 212.957,0.097 "/>
    <rect x="212.957" y="213.053" style="fill:#ED1C24;" width="53.239" height="53.239"/>
    <polygon style="fill:#F37053;" points="212.957,266.293 266.196,266.293 212.957,213.054 "/>
    <polygon style="fill:#F37053;" points="226.267,40.027 226.267,119.885 146.408,40.027 "/>
    <rect x="106.479" y="0.097" style="fill:#F37053;" width="53.239" height="53.239"/>
    <polygon style="fill:#ED1C24;" points="159.717,53.336 106.479,53.336 159.717,0.097 "/>
    <rect x="106.479" y="213.053" style="fill:#F37053;" width="53.239" height="53.239"/>
    <polygon style="fill:#ED1C24;" points="159.717,213.053 106.479,213.053 159.717,266.292 "/>
    <rect x="106.479" y="106.575" style="fill:#F37053;" width="53.239" height="53.239"/>
    <polygon style="fill:#ED1C24;" points="106.479,106.575 159.717,106.575 106.479,159.814 "/>
    <rect x="53.239" y="266.293" style="fill:#F37053;" width="53.239" height="53.238"/>
    <polygon style="fill:#ED1C24;" points="53.239,319.532 106.479,319.532 53.239,266.293 "/>
    <rect x="212.957" y="266.292" style="fill:#F37053;" width="53.239" height="53.239"/>
    <polygon style="fill:#ED1C24;" points="212.957,319.532 212.957,266.292 266.196,266.292 "/>
    <rect x="159.717" y="266.293" style="fill:#F37053;" width="53.239" height="53.238"/>
    <polygon style="fill:#ED1C24;" points="159.717,319.532 212.957,319.532 159.717,266.293 "/>
    <rect x="106.479" y="266.293" style="fill:#F37053;" width="53.239" height="53.238"/>
    <polygon style="fill:#ED1C24;" points="159.717,266.293 106.479,266.293 106.479,319.532 "/>
    <rect y="266.293" style="fill:#F37053;" width="53.239" height="53.238"/>
    <polygon style="fill:#ED1C24;" points="0,319.532 53.239,319.532 0,266.293 "/>
    <g>
	<path style="fill:#231F20;" d="M312.269,105.845c10.147,6.401,29.38,13.465,41.983,13.465c8.172,0,15.247-2.609,15.247-12.809
		c0-9.045-9.497-12.146-22.316-15.897c-18.788-5.727-42.212-14.808-42.212-44.422c0-29.603,22.979-46.181,53.479-46.181
		c21.003,0,40.875,9.279,53.918,21.859l-19.661,24.99c-11.724-8.629-24.093-15.018-34.257-15.018
		c-7.069,0-13.934,3.282-13.934,11.478c0,9.291,10.177,12.603,23.888,17.029c20.106,6.396,41.755,15.224,41.755,44.862
		c0,30.717-23.424,47.06-56.134,47.06c-22.105,0-45.084-8.834-54.575-15.247L312.269,105.845z"/>
</g>
    <polygon style="fill:#231F20;" points="535.905,2.653 535.905,35.803 495.246,35.803 495.246,149.613 457.46,149.613 457.46,35.803
	418.32,35.803 418.32,2.653 "/>
    <g>
	<path style="fill:#231F20;" d="M588.504,2.653v96.142c0,16.777,8.617,21.859,20.77,21.859c11.495,0,19.667-6.841,19.667-20.769
		V2.653h37.991V104.3c0,29.82-23.87,47.957-58.544,47.957c-38.237,0-57.887-15.458-57.887-51.257V2.653H588.504z"/>
        <path style="fill:#231F20;" d="M728.609,120.209h14.808c19.672,0,32.035-15.013,32.035-45.29c0-34.035-16.138-42.663-34.457-42.663
		h-12.386V120.209z M690.589,2.653h51.503c43.965,0,71.363,21.654,71.363,68.521c0,57.453-33.571,78.439-70.473,78.439h-52.394
		V2.653z"/>
</g>
    <rect x="834.242" y="2.654" style="fill:#231F20;" width="38.015" height="146.959"/>
    <g>
	<path style="fill:#231F20;" d="M959.986,120.879c20.329,0,26.297-21.431,26.297-43.748c0-18.577-4.871-45.524-27.188-45.524
		c-19.891,0-26.966,21.414-26.966,43.308C932.13,95.468,936.556,120.879,959.986,120.879 M958.427,152.259
		c-41.086,0-65.407-25.839-65.407-75.795C893.02,19.89,929.27,0,961.328,0c34.012,0,63.632,20.317,63.632,76.463
		C1024.96,126.63,998.435,152.259,958.427,152.259"/>
</g>
    <path style="fill:#231F20;" d="M348.545,263.817h28.761l-13.77-48.679h-0.804L348.545,263.817z M299.449,318.878l44.381-136.606
	l39.636-0.012l47.246,136.618h-37.605l-9.23-29.172h-41.298l-9.23,29.172H299.449z"/>
    <polygon style="fill:#231F20;" points="443.028,182.274 478.56,182.262 478.56,287.846 532.999,287.846 532.999,318.88
	443.028,318.88 "/>
    <g>
	<path style="fill:#231F20;" d="M592.155,246.16c13.559,0,22.196-4.104,22.196-18.285c0-13.97-7.404-17.856-20.347-17.856h-9.847
		v36.142H592.155z M584.158,318.878H548.82V182.272h50.105c32.249-0.012,51.773,14.991,51.773,43.348
		c0,31.832-23.2,47.856-56.077,47.856h-10.464V318.878z"/>
</g>
    <polygon style="fill:#231F20;" points="780.313,182.262 780.313,318.881 744.788,318.881 744.775,265.875 701.622,265.875
	701.622,318.881 666.309,318.881 666.309,182.262 701.622,182.262 701.622,234.852 744.775,234.852 744.775,182.275 "/>
    <polygon style="fill:#231F20;" points="803.315,182.274 892.676,182.262 892.676,213.079 838.653,213.079 838.653,233.842
	885.071,233.842 885.071,264.64 838.653,264.64 838.653,288.07 894.114,288.07 894.114,318.88 803.315,318.88 "/>
    <polygon style="fill:#231F20;" points="1024.96,182.274 1024.96,318.88 993.739,318.88 947.321,243.079 946.692,243.079
	946.692,318.88 911.783,318.88 911.783,182.274 944.438,182.262 989.423,256.625 989.846,256.625 989.846,182.262 "/>
    <rect x="159.717" y="0.097" style="fill:#ED1C24;" width="53.239" height="53.239"/>
    <polygon style="fill:#F37053;" points="212.957,0.097 159.717,0.097 159.717,53.336 "/>
    <rect x="212.958" y="53.336" style="fill:#ED1C24;" width="53.239" height="53.239"/>
    <polygon style="fill:#F37053;" points="212.957,106.575 266.196,106.575 266.196,53.336 "/>
    <rect x="212.957" y="106.575" style="fill:#ED1C24;" width="53.239" height="53.239"/>
    <polygon style="fill:#F37053;" points="212.957,159.814 266.196,159.814 212.957,106.575 "/>
    <g>
</g>
    <g>
</g>
    <g>
</g>
    <g>
</g>
    <g>
</g>
    <g>
</g>
</svg>
